<svg width="24" height="25" viewBox="0 0 24 25" fill="none" xmlns="http://www.w3.org/2000/svg">
<g clip-path="url(#clip0_6054_1407)">
<path d="M9.5 20V18.5H4.5C3.95 18.5 3.45 18.28 3.09 17.91C2.72 17.55 2.5 17.05 2.5 16.5C2.5 15.47 3.3 14.61 4.31 14.51C4.37 14.5 4.43 14.5 4.5 14.5H19.5C19.57 14.5 19.63 14.5 19.69 14.51C20.17 14.55 20.59 14.76 20.91 15.09C21.32 15.49 21.54 16.06 21.49 16.68C21.4 17.73 20.45 18.5 19.39 18.5H14.5V20C14.5 21.38 13.38 22.5 12 22.5C10.62 22.5 9.5 21.38 9.5 20Z" stroke="white" stroke-width="1.5" stroke-linecap="round" stroke-linejoin="round"/>
<path d="M20.1682 5.8L19.6882 14.51C19.6282 14.5 19.5682 14.5 19.4982 14.5H4.49821C4.42821 14.5 4.36821 14.5 4.30821 14.51L3.82821 5.8C3.64821 4.03 5.03821 2.5 6.80821 2.5H17.1882C18.9582 2.5 20.3482 4.03 20.1682 5.8Z" stroke="white" stroke-width="1.5" stroke-linecap="round" stroke-linejoin="round"/>
<path d="M7.98828 2.5V7.5" stroke="white" stroke-width="1.5" stroke-linecap="round" stroke-linejoin="round"/>
<path d="M12 2.5V4.5" stroke="white" stroke-width="1.5" stroke-linecap="round" stroke-linejoin="round"/>
</g>
<defs>
<clipPath id="clip0_6054_1407">
<rect width="24" height="24" fill="white" transform="translate(0 0.5)"/>
</clipPath>
</defs>
</svg>
