<svg width="459" height="446" viewBox="0 0 459 446" fill="none" xmlns="http://www.w3.org/2000/svg">
<g filter="url(#filter0_b_6054_1698)">
<path d="M98.9913 291.388C98.9913 288.627 96.7528 286.388 93.9913 286.388H24.7646C22.0032 286.388 19.7646 284.149 19.7646 281.388V252.445C19.7646 251.268 20.1803 250.128 20.9383 249.227L97.4929 158.217C98.4429 157.087 99.8433 156.435 101.319 156.435H131.906C134.667 156.435 136.906 158.674 136.906 161.435V247.653C136.906 250.415 139.144 252.653 141.906 252.653H151.553C154.314 252.653 156.553 254.892 156.553 257.653V281.388C156.553 284.149 154.314 286.388 151.553 286.388H141.906C139.144 286.388 136.906 288.627 136.906 291.388V310.657C136.906 313.418 134.667 315.657 131.906 315.657H103.991C101.23 315.657 98.9913 313.418 98.9913 310.657V291.388ZM93.9913 252.653C96.7528 252.653 98.9913 250.415 98.9913 247.653V216.989C98.9913 212.337 93.1944 210.206 90.1814 213.751L64.1204 244.415C61.3604 247.663 63.6684 252.653 67.9304 252.653H93.9913Z" fill="white"/>
</g>
<g filter="url(#filter1_b_6054_1698)">
<path d="M170.106 236.743C170.106 206.979 175.462 186.147 186.173 174.247C196.884 162.346 213.207 156.401 235.141 156.409C245.67 156.409 254.32 157.711 261.09 160.315C267.241 162.531 272.872 165.983 277.639 170.458C281.656 174.293 285.059 178.724 287.729 183.595C290.371 188.68 292.361 194.079 293.653 199.662C296.597 211.589 298.066 223.833 298.028 236.118C298.028 264.519 293.224 285.303 283.615 298.47C274.006 311.638 257.458 318.226 233.969 318.235C220.793 318.235 210.147 316.134 202.031 311.933C193.85 307.664 186.959 301.285 182.072 293.458C178.296 287.694 175.358 279.808 173.257 269.8C171.076 258.918 170.021 247.841 170.106 236.743ZM213.255 236.847C213.255 256.811 215.012 270.425 218.528 277.691C222.043 284.956 227.151 288.606 233.852 288.64C235.979 288.664 238.089 288.266 240.06 287.468C242.031 286.67 243.825 285.488 245.336 283.992C248.582 280.893 250.969 275.998 252.497 269.306C254.025 262.613 254.788 252.197 254.788 238.058C254.788 217.278 253.026 203.307 249.502 196.146C245.978 188.985 240.692 185.409 233.644 185.418C226.457 185.418 221.249 189.068 218.02 196.368C214.791 203.668 213.203 217.161 213.255 236.847Z" fill="white"/>
</g>
<g filter="url(#filter2_b_6054_1698)">
<path d="M390.718 291.388C390.718 288.627 388.479 286.388 385.718 286.388H316.491C313.73 286.388 311.491 284.149 311.491 281.388V252.445C311.491 251.268 311.907 250.128 312.665 249.227L389.219 158.217C390.169 157.087 391.57 156.435 393.046 156.435H423.632C426.394 156.435 428.632 158.674 428.632 161.435V247.653C428.632 250.415 430.871 252.653 433.632 252.653H443.344C446.106 252.653 448.344 254.892 448.344 257.653V281.388C448.344 284.149 446.106 286.388 443.344 286.388H433.632C430.871 286.388 428.632 288.627 428.632 291.388V310.657C428.632 313.418 426.394 315.657 423.632 315.657H395.718C392.956 315.657 390.718 313.418 390.718 310.657V291.388ZM385.718 252.653C388.479 252.653 390.718 250.415 390.718 247.653V216.993C390.718 212.34 384.92 210.209 381.907 213.755L355.857 244.416C353.098 247.663 355.406 252.653 359.668 252.653H385.718Z" fill="white"/>
</g>
<g opacity="0.3">
<path d="M168.413 101.478C168.413 101.96 168.27 102.431 168.002 102.832C167.734 103.233 167.353 103.545 166.907 103.728C166.462 103.912 165.972 103.96 165.499 103.865C165.026 103.77 164.592 103.537 164.252 103.195C163.912 102.853 163.682 102.418 163.589 101.945C163.497 101.472 163.547 100.982 163.733 100.537C163.919 100.092 164.233 99.7131 164.636 99.4471C165.038 99.1811 165.51 99.0405 165.992 99.0431C166.311 99.0431 166.627 99.1062 166.921 99.2287C167.216 99.3512 167.484 99.5308 167.709 99.757C167.934 99.9833 168.112 100.252 168.233 100.547C168.354 100.842 168.415 101.159 168.413 101.478Z" fill="#FF5E5E"/>
<path d="M1.71864 195.001C2.66782 195.001 3.43728 194.231 3.43728 193.282C3.43728 192.333 2.66782 191.563 1.71864 191.563C0.769461 191.563 0 192.333 0 193.282C0 194.231 0.769461 195.001 1.71864 195.001Z" fill="#FF5E5E"/>
<path d="M285.659 445.987C287.018 445.987 288.12 444.885 288.12 443.526C288.12 442.167 287.018 441.066 285.659 441.066C284.3 441.066 283.198 442.167 283.198 443.526C283.198 444.885 284.3 445.987 285.659 445.987Z" fill="#FF5E5E"/>
<path d="M344.835 345.863C345.784 345.863 346.554 345.094 346.554 344.145C346.554 343.195 345.784 342.426 344.835 342.426C343.886 342.426 343.116 343.195 343.116 344.145C343.116 345.094 343.886 345.863 344.835 345.863Z" fill="#FF5E5E"/>
<path d="M458.981 36.3779C458.981 36.7178 458.88 37.0501 458.692 37.3327C458.503 37.6153 458.234 37.8356 457.92 37.9657C457.606 38.0958 457.261 38.1298 456.927 38.0635C456.594 37.9972 456.288 37.8335 456.047 37.5931C455.807 37.3528 455.643 37.0465 455.577 36.7132C455.511 36.3798 455.545 36.0342 455.675 35.7202C455.805 35.4061 456.025 35.1377 456.308 34.9489C456.59 34.76 456.923 34.6592 457.263 34.6592C457.718 34.6592 458.156 34.8403 458.478 35.1626C458.8 35.4849 458.981 35.9221 458.981 36.3779Z" fill="#FF5E5E"/>
<path d="M131.633 1.71864C131.633 2.05855 131.532 2.39084 131.343 2.67346C131.154 2.95609 130.886 3.17638 130.572 3.30646C130.258 3.43654 129.912 3.47057 129.579 3.40426C129.245 3.33795 128.939 3.17426 128.699 2.9339C128.458 2.69354 128.295 2.38732 128.228 2.05393C128.162 1.72055 128.196 1.37498 128.326 1.06094C128.456 0.746904 128.676 0.478487 128.959 0.28964C129.242 0.100794 129.574 0 129.914 0C130.369 0.00340658 130.804 0.185571 131.125 0.507143C131.447 0.828716 131.629 1.26388 131.633 1.71864Z" fill="#FF5E5E"/>
<path d="M268.277 91.8952C269.226 91.8952 269.996 91.1257 269.996 90.1765C269.996 89.2274 269.226 88.4579 268.277 88.4579C267.328 88.4579 266.559 89.2274 266.559 90.1765C266.559 91.1257 267.328 91.8952 268.277 91.8952Z" fill="#FF5E5E"/>
</g>
<path d="M90.5932 91.9082C106.348 91.9082 119.12 79.1363 119.12 63.3813C119.12 47.6264 106.348 34.8545 90.5932 34.8545C74.8383 34.8545 62.0664 47.6264 62.0664 63.3813C62.0664 79.1363 74.8383 91.9082 90.5932 91.9082Z" fill="#FF5E5E"/>
<path opacity="0.7" d="M90.5932 91.9082C106.348 91.9082 119.12 79.1363 119.12 63.3813C119.12 47.6264 106.348 34.8545 90.5932 34.8545C74.8383 34.8545 62.0664 47.6264 62.0664 63.3813C62.0664 79.1363 74.8383 91.9082 90.5932 91.9082Z" fill="white"/>
<path opacity="0.2" d="M80.7627 41.8593C76.8777 41.8474 73.0315 42.6317 69.4614 44.1638C65.0736 48.9863 62.4693 55.1657 62.0817 61.6741C61.6942 68.1824 63.5467 74.6273 67.3311 79.9364C71.1155 85.2455 76.6037 89.0989 82.8825 90.8553C89.1613 92.6118 95.8522 92.1655 101.842 89.5906C105.556 85.4979 108.001 80.4151 108.882 74.9592C109.762 69.5033 109.04 63.9092 106.802 58.8561C104.564 53.8029 100.908 49.5081 96.2761 46.4933C91.6445 43.4784 86.2371 41.8731 80.7107 41.8723L80.7627 41.8593Z" fill="#FF5E5E"/>
<path opacity="0.2" d="M77.9248 49.3979C77.9248 49.9129 77.7721 50.4164 77.4859 50.8446C77.1998 51.2728 76.7931 51.6066 76.3173 51.8037C75.8415 52.0008 75.3179 52.0523 74.8128 51.9518C74.3077 51.8514 73.8437 51.6034 73.4795 51.2392C73.1153 50.875 72.8673 50.411 72.7668 49.9059C72.6664 49.4008 72.7179 48.8772 72.915 48.4014C73.1121 47.9255 73.4459 47.5189 73.8741 47.2327C74.3023 46.9466 74.8058 46.7939 75.3208 46.7939C76.0114 46.7939 76.6738 47.0682 77.1621 47.5566C77.6504 48.0449 77.9248 48.7073 77.9248 49.3979Z" fill="#FF5E5E"/>
<path opacity="0.2" d="M108.6 46.7939C108.6 47.3089 108.447 47.8124 108.161 48.2406C107.875 48.6688 107.468 49.0026 106.992 49.1997C106.516 49.3967 105.993 49.4483 105.488 49.3478C104.982 49.2474 104.518 48.9994 104.154 48.6352C103.79 48.271 103.542 47.807 103.442 47.3019C103.341 46.7968 103.393 46.2732 103.59 45.7974C103.787 45.3215 104.121 44.9149 104.549 44.6287C104.977 44.3426 105.481 44.1899 105.996 44.1899C106.686 44.1899 107.349 44.4642 107.837 44.9526C108.325 45.4409 108.6 46.1033 108.6 46.7939Z" fill="#FF5E5E"/>
<path opacity="0.2" d="M103.392 65.3864C103.392 66.2311 103.141 67.0567 102.672 67.759C102.203 68.4613 101.536 69.0087 100.755 69.3319C99.9751 69.6551 99.1164 69.7397 98.288 69.5749C97.4596 69.4102 96.6987 69.0034 96.1014 68.4062C95.5042 67.8089 95.0974 67.048 94.9326 66.2196C94.7679 65.3912 94.8524 64.5325 95.1757 63.7522C95.4989 62.9718 96.0463 62.3049 96.7486 61.8356C97.4509 61.3663 98.2765 61.1159 99.1212 61.1159C100.254 61.1159 101.34 61.5658 102.141 62.3667C102.942 63.1676 103.392 64.2538 103.392 65.3864Z" fill="#FF5E5E"/>
<path opacity="0.2" d="M89.8254 77.5601C89.8254 78.688 89.491 79.7906 88.8644 80.7284C88.2377 81.6662 87.3471 82.3972 86.305 82.8288C85.263 83.2604 84.1164 83.3734 83.0101 83.1533C81.9039 82.9333 80.8878 82.3901 80.0902 81.5926C79.2927 80.7951 78.7495 79.7789 78.5295 78.6727C78.3095 77.5665 78.4224 76.4198 78.854 75.3778C79.2857 74.3358 80.0166 73.4451 80.9544 72.8185C81.8922 72.1918 82.9948 71.8574 84.1227 71.8574C85.6351 71.8574 87.0857 72.4582 88.1552 73.5277C89.2246 74.5972 89.8254 76.0477 89.8254 77.5601Z" fill="#FF5E5E"/>
<path d="M428.684 407.482C431.86 394.024 423.525 380.539 410.067 377.363C396.609 374.186 383.124 382.521 379.948 395.979C376.771 409.437 385.106 422.922 398.564 426.098C412.022 429.275 425.507 420.94 428.684 407.482Z" fill="#F1A9A9"/>
<path opacity="0.3" d="M428.684 407.482C431.86 394.024 423.525 380.539 410.067 377.363C396.609 374.186 383.124 382.521 379.948 395.979C376.771 409.437 385.106 422.922 398.564 426.098C412.022 429.275 425.507 420.94 428.684 407.482Z" fill="white"/>
<path opacity="0.4" d="M420.129 382.345C414.579 380.67 408.619 380.974 403.268 383.205C397.917 385.436 393.507 389.456 390.79 394.578C388.074 399.7 387.221 405.606 388.376 411.288C389.531 416.969 392.622 422.073 397.123 425.728C399.457 426.437 401.883 426.797 404.323 426.796C409.492 426.794 414.534 425.194 418.757 422.213C422.979 419.232 426.176 415.017 427.908 410.147C429.64 405.277 429.822 399.99 428.429 395.012C427.036 390.034 424.137 385.61 420.129 382.345Z" fill="#F1A9A9"/>
<path d="M380.418 409.245C353.688 421.822 373.621 431.522 411.288 417.981C446.169 405.443 459.462 389.637 428.214 394.545C429.894 401.12 386.212 418.137 380.418 409.245Z" fill="#F1A9A9"/>
<path opacity="0.2" d="M419.83 156.435C384.819 180.093 339.497 211.341 326.985 286.388H324.315C336.489 212.174 380.158 180.184 415.182 156.435H419.83Z" fill="black"/>
<path opacity="0.1" d="M238.722 391.368C216.588 391.368 194.701 381.382 184.038 365.081C177.463 355.003 169.82 333.898 192.579 305.736L194.597 307.376C178.504 327.297 175.536 347.282 186.225 363.662C199.245 383.582 229.96 393.608 256.182 386.473C283.042 379.168 299.343 355.811 300.918 322.388C306.296 208.06 367.034 172.84 411.38 147.126C438.944 131.15 458.851 119.615 454.476 95.2543C453.864 91.8821 452.523 89.5516 450.349 88.1194C444.685 84.3826 433.618 86.9736 420.807 89.9552C395.665 95.8142 361.24 103.834 340.734 68.9539L342.986 67.6519C362.516 100.892 394.506 93.4315 420.221 87.4423C433.618 84.3305 445.18 81.6354 451.781 85.9711C454.581 87.8069 456.299 90.7103 456.989 94.8246C461.689 120.969 440.063 133.52 412.656 149.404C368.818 174.82 308.796 209.622 303.483 322.57C301.843 357.204 284.839 381.434 256.82 389.051C250.917 390.623 244.831 391.402 238.722 391.368Z" fill="white"/>
<path d="M313.926 38.1747C319.925 38.2093 325.885 39.1441 331.607 40.9479C331.607 40.9479 345.929 65.3864 347.622 70.985C347.023 76.5055 337.713 85.5544 337.713 85.5544L313.926 38.1747Z" fill="#FF5E5E"/>
<path opacity="0.3" d="M313.926 38.1747C319.925 38.2093 325.885 39.1441 331.607 40.9479C331.607 40.9479 345.929 65.3864 347.622 70.985C347.023 76.5055 337.713 85.5544 337.713 85.5544L313.926 38.1747Z" fill="white"/>
<path d="M356.344 156.826C350.829 150.082 345.799 142.955 341.293 135.499C340.199 133.616 339.162 131.697 338.181 129.744C337.621 128.638 337.088 127.531 336.567 126.411C335.883 125.322 335.353 124.143 334.991 122.909C333.429 106.412 339.08 94.2648 333.689 81.0235L312.232 89.4084C312.232 89.4084 314.055 113.001 318.222 127.166C320.826 135.929 326.659 143.506 332.296 150.524C334.054 152.712 335.747 154.964 337.504 157.164C339.262 159.365 341.033 161.149 342.712 163.219C345.251 166.357 346.084 169.364 344.17 173.062L343.845 173.648C343.298 174.611 345.85 175.705 347.465 173.648C350.069 170.289 349.704 170.497 351.969 167.632C353.35 165.901 354.925 164.013 356.292 162.424C356.952 161.643 357.318 160.657 357.327 159.635C357.337 158.612 356.989 157.619 356.344 156.826Z" fill="#FF5E5E"/>
<path opacity="0.7" d="M356.344 156.826C350.829 150.082 345.799 142.955 341.293 135.499C340.199 133.616 339.162 131.697 338.181 129.744C337.621 128.638 337.088 127.531 336.567 126.411C335.883 125.322 335.353 124.143 334.991 122.909C333.429 106.412 339.08 94.2648 333.689 81.0235L312.232 89.4084C312.232 89.4084 314.055 113.001 318.222 127.166C320.826 135.929 326.659 143.506 332.296 150.524C334.054 152.712 335.747 154.964 337.504 157.164C339.262 159.365 341.033 161.149 342.712 163.219C345.251 166.357 346.084 169.364 344.17 173.062L343.845 173.648C343.298 174.611 345.85 175.705 347.465 173.648C350.069 170.289 349.704 170.497 351.969 167.632C353.35 165.901 354.925 164.013 356.292 162.424C356.952 161.643 357.318 160.657 357.327 159.635C357.337 158.612 356.989 157.619 356.344 156.826Z" fill="white"/>
<path opacity="0.3" d="M351.098 150.042C347.693 153.692 343.913 156.974 339.822 159.834C340.382 160.458 340.929 161.136 341.489 161.734C345.585 158.967 349.305 155.68 352.556 151.956L351.098 150.042Z" fill="#FF5E5E"/>
<path opacity="0.3" d="M356.344 156.826L356.188 156.644C355.186 157.793 354.603 159.248 354.535 160.771C354.451 161.816 354.62 162.865 355.029 163.831L356.266 162.359C356.913 161.586 357.273 160.614 357.288 159.607C357.302 158.599 356.969 157.617 356.344 156.826Z" fill="#FF5E5E"/>
<path d="M308.822 53.7987C306.496 57.2816 303.705 60.4311 300.528 63.16C298.766 64.6786 296.835 65.9893 294.773 67.066C293.69 67.6211 292.567 68.0954 291.414 68.4852L290.529 68.7717L290.242 68.8498L289.63 69.019C289.254 69.1084 288.871 69.1694 288.485 69.2013C287.386 69.2853 286.281 69.1841 285.217 68.9019C283.874 68.5207 282.587 67.9648 281.389 67.2483C280.425 66.6848 279.49 66.072 278.589 65.4125C276.961 64.2017 275.405 62.8975 273.928 61.5065C271.08 58.808 268.467 55.8723 266.116 52.731C265.664 52.1191 265.439 51.3683 265.481 50.6083C265.522 49.8482 265.828 49.1266 266.345 48.568C266.862 48.0093 267.558 47.6487 268.312 47.5482C269.067 47.4478 269.833 47.6138 270.478 48.0178H270.582C273.655 49.9708 276.754 52.0279 279.774 53.8638C281.311 54.7621 282.795 55.6735 284.266 56.3766C284.938 56.7283 285.629 57.0412 286.336 57.314C286.777 57.5086 287.249 57.6232 287.729 57.6526C287.808 57.6526 287.729 57.5614 287.248 57.5745C287.096 57.5654 286.944 57.5654 286.792 57.5745L286.506 57.6395L286.935 57.4182C287.514 57.1069 288.075 56.7635 288.615 56.3896C289.78 55.5682 290.869 54.6445 291.87 53.6294C294.144 51.2457 296.275 48.7283 298.25 46.0908C299.332 44.8803 300.827 44.1178 302.442 43.9529C304.057 43.7879 305.676 44.2325 306.98 45.1993C308.284 46.1661 309.18 47.5854 309.492 49.1788C309.804 50.7721 309.509 52.4245 308.666 53.8117L308.822 53.7987Z" fill="#FF5E5E"/>
<path opacity="0.7" d="M308.822 53.7987C306.496 57.2816 303.705 60.4311 300.528 63.16C298.766 64.6786 296.835 65.9893 294.773 67.066C293.69 67.6211 292.567 68.0954 291.414 68.4852L290.529 68.7717L290.242 68.8498L289.63 69.019C289.254 69.1084 288.871 69.1694 288.485 69.2013C287.386 69.2853 286.281 69.1841 285.217 68.9019C283.874 68.5207 282.587 67.9648 281.389 67.2483C280.425 66.6848 279.49 66.072 278.589 65.4125C276.961 64.2017 275.405 62.8975 273.928 61.5065C271.08 58.808 268.467 55.8723 266.116 52.731C265.664 52.1191 265.439 51.3683 265.481 50.6083C265.522 49.8482 265.828 49.1266 266.345 48.568C266.862 48.0093 267.558 47.6487 268.312 47.5482C269.067 47.4478 269.833 47.6138 270.478 48.0178H270.582C273.655 49.9708 276.754 52.0279 279.774 53.8638C281.311 54.7621 282.795 55.6735 284.266 56.3766C284.938 56.7283 285.629 57.0412 286.336 57.314C286.777 57.5086 287.249 57.6232 287.729 57.6526C287.808 57.6526 287.729 57.5614 287.248 57.5745C287.096 57.5654 286.944 57.5654 286.792 57.5745L286.506 57.6395L286.935 57.4182C287.514 57.1069 288.075 56.7635 288.615 56.3896C289.78 55.5682 290.869 54.6445 291.87 53.6294C294.144 51.2457 296.275 48.7283 298.25 46.0908C299.332 44.8803 300.827 44.1178 302.442 43.9529C304.057 43.7879 305.676 44.2325 306.98 45.1993C308.284 46.1661 309.18 47.5854 309.492 49.1788C309.804 50.7721 309.509 52.4245 308.666 53.8117L308.822 53.7987Z" fill="white"/>
<path d="M261.234 45.2315L262.757 47.8355C262.757 47.8355 263.916 51.2467 266.246 51.8717L272.574 49.8276L272.248 49.2937C271.441 48.0699 271.532 45.6872 271.806 43.7082C272.079 41.7291 271.064 41.664 270.309 42.1588C269.773 42.7744 269.398 43.5121 269.215 44.3071C268.904 43.8771 268.56 43.4722 268.186 43.0962L266.259 41.1693C265.855 40.7741 265.316 40.5465 264.751 40.532C264.186 40.5175 263.637 40.7172 263.213 41.0911L261.65 42.4843C261.28 42.8271 261.036 43.2857 260.961 43.7849C260.885 44.2841 260.981 44.7942 261.234 45.2315Z" fill="#FF5E5E"/>
<path opacity="0.7" d="M261.234 45.2315L262.757 47.8355C262.757 47.8355 263.916 51.2467 266.246 51.8717L272.574 49.8276L272.248 49.2937C271.441 48.0699 271.532 45.6872 271.806 43.7082C272.079 41.7291 271.064 41.664 270.309 42.1588C269.773 42.7744 269.398 43.5121 269.215 44.3071C268.904 43.8771 268.56 43.4722 268.186 43.0962L266.259 41.1693C265.855 40.7741 265.316 40.5465 264.751 40.532C264.186 40.5175 263.637 40.7172 263.213 41.0911L261.65 42.4843C261.28 42.8271 261.036 43.2857 260.961 43.7849C260.885 44.2841 260.981 44.7942 261.234 45.2315Z" fill="white"/>
<path d="M320.318 35.8571C313.3 37.7174 306.577 40.553 300.346 44.281C299.374 44.8894 298.611 45.7804 298.159 46.8346C297.708 47.8887 297.589 49.0557 297.82 50.1791C300.333 62.47 306.048 78.9272 312.22 89.4083L341.007 77.495C341.202 72.4172 334.211 55.986 327.089 40.1016C325.813 37.2502 323.352 35.128 320.318 35.8571Z" fill="#FF5E5E"/>
<path opacity="0.8" d="M320.318 35.8571C313.3 37.7174 306.577 40.553 300.346 44.281C299.374 44.8894 298.611 45.7804 298.159 46.8346C297.708 47.8887 297.589 49.0557 297.82 50.1791C300.333 62.47 306.048 78.9272 312.22 89.4083L341.007 77.495C341.202 72.4172 334.211 55.986 327.089 40.1016C325.813 37.2502 323.352 35.128 320.318 35.8571Z" fill="white"/>
<path opacity="0.3" d="M331.555 50.1661L325.839 48.2521C327.141 51.5983 331.737 55.8298 334.953 58.3166C333.911 55.7126 332.752 52.9784 331.555 50.1661Z" fill="#FF5E5E"/>
<path d="M318.43 22.9673C316.048 18.4363 310.905 16.1578 304.733 16.6656C299.525 17.1083 294.916 22.4204 295.463 25.2848C296.01 28.1492 300.385 29.3731 301.218 30.3626L297.611 32.9666C297.184 33.275 296.824 33.6667 296.552 34.118C296.28 34.5693 296.102 35.0709 296.029 35.5928C295.956 36.1146 295.99 36.6458 296.127 37.1544C296.265 37.663 296.504 38.1385 296.83 38.5522C298.354 40.4792 300.359 42.4582 301.517 43.9165C311.491 43.6561 318.873 39.8542 321.542 36.1956C320.54 31.5605 320.748 27.4722 318.43 22.9673Z" fill="#FF5E5E"/>
<path opacity="0.8" d="M318.43 22.9673C316.048 18.4363 310.905 16.1578 304.733 16.6656C299.525 17.1083 294.916 22.4204 295.463 25.2848C296.01 28.1492 300.385 29.3731 301.218 30.3626L297.611 32.9666C297.184 33.275 296.824 33.6667 296.552 34.118C296.28 34.5693 296.102 35.0709 296.029 35.5928C295.956 36.1146 295.99 36.6458 296.127 37.1544C296.265 37.663 296.504 38.1385 296.83 38.5522C298.354 40.4792 300.359 42.4582 301.517 43.9165C311.491 43.6561 318.873 39.8542 321.542 36.1956C320.54 31.5605 320.748 27.4722 318.43 22.9673Z" fill="white"/>
<path d="M313.535 25.7796C314.243 27.5954 314.397 29.5803 313.977 31.4835C313.557 33.3867 312.582 35.1226 311.176 36.472C309.77 37.8213 307.995 38.7235 306.076 39.0643C304.157 39.4052 302.18 39.1696 300.395 38.3872C298.61 37.6048 297.097 36.3107 296.048 34.6686C294.998 33.0265 294.459 31.1101 294.498 29.1615C294.537 27.213 295.153 25.3198 296.268 23.7214C297.383 22.1229 298.947 20.8909 300.762 20.181C303.199 19.2319 305.912 19.2884 308.307 20.338C310.702 21.3877 312.582 23.3448 313.535 25.7796Z" fill="#263238"/>
<path d="M398.074 143.116C397.93 138.832 397.735 139.21 397.618 135.603C397.54 133.39 397.527 130.929 397.514 128.807C397.509 127.799 397.157 126.824 396.517 126.045C395.876 125.267 394.986 124.734 393.998 124.536C392.28 124.185 390.548 123.859 388.79 123.495C386.538 123.013 384.311 122.492 382.111 121.854C380.392 121.359 378.7 120.813 377.02 120.201C375.341 119.589 373.453 118.899 371.708 118.091C369.651 117.219 367.62 116.282 365.615 115.305C363.362 114.238 361.136 113.118 358.909 111.985C350.342 97.8063 350.16 88.4579 340.968 77.4951L321.229 86.4268C321.229 86.4268 335.734 112.154 345.603 123.065C351.293 129.341 360.211 132.179 368.167 134.236C373.908 135.707 379.728 136.84 385.548 137.921C387.814 138.338 390.275 138.494 392.228 139.848C393.672 140.956 394.663 142.553 395.014 144.34C395.101 144.704 395.179 145.069 395.248 145.433C395.496 146.527 398.165 145.694 398.074 143.116Z" fill="#FF5E5E"/>
<path opacity="0.8" d="M398.074 143.116C397.93 138.832 397.735 139.21 397.618 135.603C397.54 133.39 397.527 130.929 397.514 128.807C397.509 127.799 397.157 126.824 396.517 126.045C395.876 125.267 394.986 124.734 393.998 124.536C392.28 124.185 390.548 123.859 388.79 123.495C386.538 123.013 384.311 122.492 382.111 121.854C380.392 121.359 378.7 120.813 377.02 120.201C375.341 119.589 373.453 118.899 371.708 118.091C369.651 117.219 367.62 116.282 365.615 115.305C363.362 114.238 361.136 113.118 358.909 111.985C350.342 97.8063 350.16 88.4579 340.968 77.4951L321.229 86.4268C321.229 86.4268 335.734 112.154 345.603 123.065C351.293 129.341 360.211 132.179 368.167 134.236C373.908 135.707 379.728 136.84 385.548 137.921C387.814 138.338 390.275 138.494 392.228 139.848C393.672 140.956 394.663 142.553 395.014 144.34C395.101 144.704 395.179 145.069 395.248 145.433C395.496 146.527 398.165 145.694 398.074 143.116Z" fill="white"/>
<path opacity="0.3" d="M388.062 123.325C387.28 123.156 386.499 122.987 385.705 122.792C385.77 127.297 383.661 135.056 382.893 137.413L385.366 137.882C386.988 133.192 387.896 128.285 388.062 123.325Z" fill="#FF5E5E"/>
<path opacity="0.3" d="M397.566 128.807C397.562 127.801 397.212 126.827 396.574 126.049C395.936 125.271 395.05 124.737 394.064 124.536L392.762 124.289C392.971 125.769 393.728 127.117 394.884 128.065C395.627 128.752 396.518 129.26 397.488 129.549C397.566 129.315 397.566 129.054 397.566 128.807Z" fill="#FF5E5E"/>
<path d="M311.699 25.8577C312.219 27.8368 310.006 29.9069 308.248 28.2013C306.608 26.4424 304.813 24.8345 302.884 23.397C301.074 22.2642 303.483 20.2852 306.334 21.0534C307.551 21.359 308.675 21.9561 309.61 22.7931C310.544 23.6301 311.261 24.6819 311.699 25.8577Z" fill="white"/>
<path d="M311.842 88.7704C310.93 89.1089 312.597 90.6713 312.597 90.6713C312.597 90.6713 330.825 84.4347 341.892 78.0158C341.919 77.6272 341.852 77.2379 341.698 76.8801C341.544 76.5223 341.307 76.2064 341.007 75.9587C331.535 80.7768 321.798 85.0543 311.842 88.7704Z" fill="#FF5E5E"/>
<path opacity="0.5" d="M311.842 88.7704C310.93 89.1089 312.597 90.6713 312.597 90.6713C312.597 90.6713 330.825 84.4347 341.892 78.0158C341.919 77.6272 341.852 77.2379 341.698 76.8801C341.544 76.5223 341.307 76.2064 341.007 75.9587C331.535 80.7768 321.798 85.0543 311.842 88.7704Z" fill="white"/>
<path d="M325.253 34.9978C328.846 36.8206 332.218 38.7345 335.669 40.8568C337.348 41.9244 339.015 43.0051 340.668 44.1769C342.322 45.3487 343.962 46.5465 345.616 47.9006L346.228 48.4084L346.996 49.1114C347.454 49.521 347.888 49.9557 348.298 50.4134C348.715 50.8691 349.066 51.3118 349.405 51.7154C349.743 52.1191 350.108 52.6008 350.407 53.0174C351.621 54.6913 352.742 56.4298 353.766 58.2254C355.784 61.7074 357.526 65.3425 358.974 69.0971C359.242 69.8065 359.256 70.5868 359.014 71.3052C358.771 72.0237 358.287 72.6359 357.644 73.038C357.001 73.44 356.239 73.6069 355.487 73.5104C354.735 73.4138 354.04 73.0598 353.519 72.5084L353.454 72.4303C350.85 69.657 348.337 66.7405 345.811 64.0193C343.285 61.2982 340.72 58.5379 338.598 57.3271C335.643 55.4912 332.348 53.6554 329.08 51.8587L319.237 46.3903C317.711 45.5822 316.568 44.201 316.06 42.5504C315.553 40.8998 315.721 39.115 316.529 37.5887C317.337 36.0625 318.718 34.9197 320.369 34.4118C322.02 33.9039 323.804 34.0725 325.331 34.8806L325.253 34.9978Z" fill="#FF5E5E"/>
<path opacity="0.8" d="M325.253 34.9978C328.846 36.8206 332.218 38.7345 335.669 40.8568C337.348 41.9244 339.015 43.0051 340.668 44.1769C342.322 45.3487 343.962 46.5465 345.616 47.9006L346.228 48.4084L346.996 49.1114C347.454 49.521 347.888 49.9557 348.298 50.4134C348.715 50.8691 349.066 51.3118 349.405 51.7154C349.743 52.1191 350.108 52.6008 350.407 53.0174C351.621 54.6913 352.742 56.4298 353.766 58.2254C355.784 61.7074 357.526 65.3425 358.974 69.0971C359.242 69.8065 359.256 70.5868 359.014 71.3052C358.771 72.0237 358.287 72.6359 357.644 73.038C357.001 73.44 356.239 73.6069 355.487 73.5104C354.735 73.4138 354.04 73.0598 353.519 72.5084L353.454 72.4303C350.85 69.657 348.337 66.7405 345.811 64.0193C343.285 61.2982 340.72 58.5379 338.598 57.3271C335.643 55.4912 332.348 53.6554 329.08 51.8587L319.237 46.3903C317.711 45.5822 316.568 44.201 316.06 42.5504C315.553 40.8998 315.721 39.115 316.529 37.5887C317.337 36.0625 318.718 34.9197 320.369 34.4118C322.02 33.9039 323.804 34.0725 325.331 34.8806L325.253 34.9978Z" fill="white"/>
<path d="M362.061 75.5941L360.954 72.8209C360.954 72.8209 360.342 69.2794 358.141 68.2899L351.631 69.3185L351.853 69.8914C352.452 71.1934 351.996 73.576 351.41 75.477C350.824 77.3779 351.814 77.6253 352.647 77.2477C353.116 77.0394 353.571 76.1931 354.066 75.2947C354.309 75.7473 354.583 76.1823 354.886 76.5967L356.488 78.7971C356.823 79.253 357.317 79.5655 357.873 79.6718C358.428 79.7781 359.003 79.6702 359.483 79.3699L361.253 78.2372C361.668 77.9536 361.973 77.5374 362.12 77.0571C362.267 76.5768 362.246 76.0609 362.061 75.5941Z" fill="#FF5E5E"/>
<path opacity="0.8" d="M362.061 75.5941L360.954 72.8209C360.954 72.8209 360.342 69.2794 358.141 68.2899L351.631 69.3185L351.853 69.8914C352.452 71.1934 351.996 73.576 351.41 75.477C350.824 77.3779 351.814 77.6253 352.647 77.2477C353.116 77.0394 353.571 76.1931 354.066 75.2947C354.309 75.7473 354.583 76.1823 354.886 76.5967L356.488 78.7971C356.823 79.253 357.317 79.5655 357.873 79.6718C358.428 79.7781 359.003 79.6702 359.483 79.3699L361.253 78.2372C361.668 77.9536 361.973 77.5374 362.12 77.0571C362.267 76.5768 362.246 76.0609 362.061 75.5941Z" fill="white"/>
<path opacity="0.3" d="M319.758 49.9708L318.17 50.101L308.418 73.6411C308.951 73.6795 309.487 73.6356 310.006 73.5109C310.006 73.5109 322.714 68.7716 326.555 67.0009C323.977 61.6757 319.758 49.9708 319.758 49.9708Z" fill="#FF5E5E"/>
<path d="M301.96 56.1423C303.145 62.2958 305.345 68.2094 308.47 73.6411C313.235 72.0006 321.177 68.9019 325.031 67.1311C322.441 61.578 320.142 55.8936 318.144 50.101C314.069 50.3744 305.124 53.7987 301.96 56.1423Z" fill="white"/>
<path opacity="0.3" d="M311.634 61.2331C311.444 61.8698 311.069 62.4357 310.557 62.8593C310.045 63.2829 309.419 63.5451 308.758 63.6127C308.096 63.6803 307.43 63.5503 306.843 63.2391C306.256 62.9279 305.774 62.4496 305.459 61.8646C305.143 61.2796 305.009 60.6142 305.072 59.9527C305.135 59.2911 305.393 58.6631 305.812 58.1481C306.232 57.6331 306.796 57.2542 307.431 57.0593C308.066 56.8645 308.745 56.8626 309.382 57.0537C310.234 57.3096 310.951 57.8936 311.373 58.6773C311.795 59.4609 311.889 60.3802 311.634 61.2331Z" fill="#FF5E5E"/>
<path opacity="0.6" d="M314.121 56.7542C314.07 56.9715 313.955 57.1684 313.79 57.3191C313.626 57.4697 313.419 57.5671 313.198 57.5983C312.977 57.6296 312.752 57.5933 312.552 57.4943C312.352 57.3952 312.187 57.238 312.078 57.0433C311.969 56.8486 311.921 56.6254 311.941 56.4031C311.961 56.1809 312.048 55.9698 312.19 55.7978C312.332 55.6257 312.523 55.5006 312.737 55.4389C312.952 55.3773 313.18 55.3819 313.392 55.4522C313.656 55.5365 313.878 55.7179 314.013 55.9595C314.148 56.2012 314.187 56.4852 314.121 56.7542Z" fill="#FF5E5E"/>
<path opacity="0.6" d="M317.037 55.6215C317.007 55.7725 316.945 55.9155 316.856 56.0413C316.767 56.1671 316.652 56.2729 316.52 56.3519C316.388 56.431 316.241 56.4816 316.088 56.5004C315.935 56.5192 315.78 56.5059 315.632 56.4613C315.485 56.4167 315.348 56.3417 315.231 56.2413C315.114 56.1409 315.02 56.0171 314.953 55.878C314.887 55.7389 314.851 55.5875 314.846 55.4334C314.842 55.2794 314.87 55.1261 314.928 54.9835C314.97 54.8457 315.038 54.7175 315.129 54.6062C315.221 54.495 315.333 54.4028 315.46 54.3351C315.587 54.2674 315.726 54.2254 315.869 54.2115C316.013 54.1976 316.157 54.2122 316.295 54.2544C316.574 54.3388 316.808 54.5296 316.947 54.7855C317.086 55.0414 317.118 55.3418 317.037 55.6215Z" fill="#FF5E5E"/>
<path opacity="0.5" d="M321.126 65.764L309.082 70.5163L308.366 68.1467L320.397 63.3944L321.126 65.764Z" fill="#FF5E5E"/>
<defs>
<filter id="filter0_b_6054_1698" x="-50.2354" y="86.4353" width="276.788" height="299.222" filterUnits="userSpaceOnUse" color-interpolation-filters="sRGB">
<feFlood flood-opacity="0" result="BackgroundImageFix"/>
<feGaussianBlur in="BackgroundImageFix" stdDeviation="35"/>
<feComposite in2="SourceAlpha" operator="in" result="effect1_backgroundBlur_6054_1698"/>
<feBlend mode="normal" in="SourceGraphic" in2="effect1_backgroundBlur_6054_1698" result="shape"/>
</filter>
<filter id="filter1_b_6054_1698" x="100.102" y="86.4092" width="267.927" height="301.826" filterUnits="userSpaceOnUse" color-interpolation-filters="sRGB">
<feFlood flood-opacity="0" result="BackgroundImageFix"/>
<feGaussianBlur in="BackgroundImageFix" stdDeviation="35"/>
<feComposite in2="SourceAlpha" operator="in" result="effect1_backgroundBlur_6054_1698"/>
<feBlend mode="normal" in="SourceGraphic" in2="effect1_backgroundBlur_6054_1698" result="shape"/>
</filter>
<filter id="filter2_b_6054_1698" x="241.491" y="86.4353" width="276.854" height="299.222" filterUnits="userSpaceOnUse" color-interpolation-filters="sRGB">
<feFlood flood-opacity="0" result="BackgroundImageFix"/>
<feGaussianBlur in="BackgroundImageFix" stdDeviation="35"/>
<feComposite in2="SourceAlpha" operator="in" result="effect1_backgroundBlur_6054_1698"/>
<feBlend mode="normal" in="SourceGraphic" in2="effect1_backgroundBlur_6054_1698" result="shape"/>
</filter>
</defs>
</svg>
