<svg width="32" height="32" viewBox="0 0 32 32" fill="none" xmlns="http://www.w3.org/2000/svg">
<g clip-path="url(#clip0_3995_3241)">
<rect width="32" height="32" fill="black"/>
<g filter="url(#filter0_f_3995_3241)">
<path d="M43 4.07064C43 -0.308624 39.4142 -3.85872 34.991 -3.85872C30.5677 -3.85872 17 -5.02651 17 -0.647246C17 3.73202 30.5677 12 34.991 12C39.4142 12 43 8.4499 43 4.07064Z" fill="url(#paint0_linear_3995_3241)"/>
</g>
<path d="M10 24V9H16.1571C17.3194 9 18.2853 9.1709 19.055 9.5127C19.8298 9.84961 20.4084 10.311 20.7906 10.897C21.178 11.4829 21.3717 12.147 21.3717 12.8892C21.3717 13.4995 21.2461 14.022 20.9948 14.4565C20.7435 14.8862 20.4058 15.2354 19.9817 15.5039C19.5576 15.7725 19.0838 15.9653 18.5602 16.0825V16.229C19.1309 16.2583 19.678 16.4219 20.2016 16.7197C20.7304 17.0127 21.1623 17.4277 21.4974 17.9648C21.8325 18.502 22 19.1514 22 19.9131C22 20.6895 21.7984 21.3877 21.3953 22.0078C20.9921 22.623 20.3848 23.1089 19.5733 23.4653C18.7618 23.8218 17.7408 24 16.5105 24H10ZM12.9136 21.7295H16.0471C17.1047 21.7295 17.8665 21.5415 18.3325 21.1655C18.8037 20.7847 19.0393 20.2964 19.0393 19.7007C19.0393 19.2563 18.9215 18.856 18.6859 18.4995C18.4503 18.1382 18.1152 17.855 17.6806 17.6499C17.2461 17.4399 16.7277 17.335 16.1257 17.335H12.9136V21.7295ZM12.9136 15.3794H15.7958C16.2984 15.3794 16.7513 15.2939 17.1545 15.123C17.5576 14.9473 17.8743 14.7007 18.1047 14.3833C18.3403 14.061 18.4581 13.6802 18.4581 13.2407C18.4581 12.6597 18.2382 12.1812 17.7984 11.8052C17.3639 11.4292 16.7173 11.2412 15.8586 11.2412H12.9136V15.3794Z" fill="white"/>
</g>
<defs>
<filter id="filter0_f_3995_3241" x="9" y="-12" width="42" height="32" filterUnits="userSpaceOnUse" color-interpolation-filters="sRGB">
<feFlood flood-opacity="0" result="BackgroundImageFix"/>
<feBlend mode="normal" in="SourceGraphic" in2="BackgroundImageFix" result="shape"/>
<feGaussianBlur stdDeviation="4" result="effect1_foregroundBlur_3995_3241"/>
</filter>
<linearGradient id="paint0_linear_3995_3241" x1="28.2695" y1="12.6622" x2="40.7453" y2="-2.37574" gradientUnits="userSpaceOnUse">
<stop stop-color="#FF0000"/>
<stop offset="0.523347" stop-color="#D60138"/>
<stop offset="1" stop-color="#B1016B"/>
</linearGradient>
<clipPath id="clip0_3995_3241">
<rect width="32" height="32" fill="white"/>
</clipPath>
</defs>
</svg>
