<svg width="256" height="256" viewBox="0 0 256 256" fill="none" xmlns="http://www.w3.org/2000/svg">
<g clip-path="url(#clip0_3995_3243)">
<rect width="256" height="256" fill="black"/>
<g filter="url(#filter0_f_3995_3243)">
<path d="M358 36.1313C358 -3.00833 326.28 -34.7373 287.151 -34.7373C248.022 -34.7373 128 -45.1744 128 -6.03476C128 33.1049 248.022 107 287.151 107C326.28 107 358 75.271 358 36.1313Z" fill="url(#paint0_linear_3995_3243)"/>
</g>
<path d="M73 197V59H129.44C140.094 59 148.949 60.5723 156.004 63.7168C163.107 66.8164 168.41 71.0615 171.914 76.4522C175.465 81.8428 177.241 87.9522 177.241 94.7803C177.241 100.396 176.089 105.202 173.785 109.2C171.482 113.153 168.386 116.365 164.499 118.836C160.611 121.307 156.268 123.081 151.469 124.159V125.507C156.7 125.776 161.715 127.281 166.514 130.021C171.362 132.717 175.321 136.535 178.393 141.477C181.464 146.418 183 152.393 183 159.4C183 166.543 181.152 172.967 177.457 178.672C173.761 184.332 168.194 188.802 160.755 192.081C153.316 195.36 143.958 197 132.679 197H73ZM99.7081 176.111H128.432C138.127 176.111 145.11 174.382 149.381 170.923C153.7 167.419 155.86 162.927 155.86 157.446C155.86 153.358 154.78 149.675 152.62 146.396C150.461 143.071 147.389 140.466 143.406 138.579C139.422 136.647 134.671 135.682 129.152 135.682H99.7081V176.111ZM99.7081 117.69H126.128C130.736 117.69 134.887 116.904 138.582 115.332C142.278 113.715 145.182 111.446 147.293 108.526C149.453 105.562 150.533 102.058 150.533 98.0147C150.533 92.6689 148.517 88.2666 144.486 84.8076C140.502 81.3486 134.575 79.6191 126.704 79.6191H99.7081V117.69Z" fill="white"/>
</g>
<defs>
<filter id="filter0_f_3995_3243" x="48" y="-116" width="390" height="303" filterUnits="userSpaceOnUse" color-interpolation-filters="sRGB">
<feFlood flood-opacity="0" result="BackgroundImageFix"/>
<feBlend mode="normal" in="SourceGraphic" in2="BackgroundImageFix" result="shape"/>
<feGaussianBlur stdDeviation="40" result="effect1_foregroundBlur_3995_3243"/>
</filter>
<linearGradient id="paint0_linear_3995_3243" x1="227.691" y1="112.918" x2="339.4" y2="-20.3553" gradientUnits="userSpaceOnUse">
<stop stop-color="#FF0000"/>
<stop offset="0.523347" stop-color="#D60138"/>
<stop offset="1" stop-color="#B1016B"/>
</linearGradient>
<clipPath id="clip0_3995_3243">
<rect width="256" height="256" fill="white"/>
</clipPath>
</defs>
</svg>
